<?xml version="1.0" standalone="no"?>
<!DOCTYPE svg PUBLIC "-//W3C//DTD SVG 20010904//EN"
 "http://www.w3.org/TR/2001/REC-SVG-20010904/DTD/svg10.dtd">
<svg version="1.0" xmlns="http://www.w3.org/2000/svg"
 width="46.000000pt" height="46.000000pt" viewBox="0 0 46.000000 46.000000"
 preserveAspectRatio="xMidYMid meet">

<g transform="translate(0.000000,46.000000) scale(0.100000,-0.100000)"
fill="#000000" stroke="none">
<path d="M145 396 c-81 -41 -114 -109 -101 -201 13 -81 101 -155 184 -155 53
0 132 42 162 87 34 49 36 157 4 199 -68 91 -158 117 -249 70z m163 -36 c96
-59 96 -201 0 -260 -18 -11 -43 -20 -55 -20 -23 0 -23 1 -23 150 0 149 0 150
23 150 12 0 37 -9 55 -20z"/>
</g>
</svg>
