<?xml version="1.0" encoding="UTF-8"?>
<svg xmlns="http://www.w3.org/2000/svg" xmlns:xlink="http://www.w3.org/1999/xlink" width="48px" height="48px" viewBox="0 0 48 48" version="1.1">
<g id="surface1">
<path style=" stroke:none;fill-rule:nonzero;fill:rgb(0%,0%,0%);fill-opacity:1;" d="M 15 14.371094 C 15 14.71875 14.71875 15 14.371094 15 L 9.636719 15 C 9.289062 15 9.007812 14.71875 9.007812 14.371094 L 9.007812 9.636719 C 9.007812 9.289062 9.289062 9.007812 9.636719 9.007812 L 14.371094 9.007812 C 14.71875 9.007812 15 9.289062 15 9.636719 Z M 15 14.371094 "/>
<path style=" stroke:none;fill-rule:nonzero;fill:rgb(0%,0%,0%);fill-opacity:1;" d="M 27 14.371094 C 27 14.71875 26.71875 15 26.371094 15 L 21.636719 15 C 21.289062 15 21.007812 14.71875 21.007812 14.371094 L 21.007812 9.636719 C 21.007812 9.289062 21.289062 9.007812 21.636719 9.007812 L 26.371094 9.007812 C 26.71875 9.007812 27 9.289062 27 9.636719 Z M 27 14.371094 "/>
<path style=" stroke:none;fill-rule:nonzero;fill:rgb(0%,0%,0%);fill-opacity:1;" d="M 39 14.371094 C 39 14.71875 38.71875 15 38.371094 15 L 33.636719 15 C 33.289062 15 33.007812 14.71875 33.007812 14.371094 L 33.007812 9.636719 C 33.007812 9.289062 33.289062 9.007812 33.636719 9.007812 L 38.371094 9.007812 C 38.71875 9.007812 39 9.289062 39 9.636719 Z M 39 14.371094 "/>
<path style=" stroke:none;fill-rule:nonzero;fill:rgb(0%,0%,0%);fill-opacity:1;" d="M 15 26.371094 C 15 26.71875 14.71875 27 14.371094 27 L 9.636719 27 C 9.289062 27 9.007812 26.71875 9.007812 26.371094 L 9.007812 21.636719 C 9.007812 21.289062 9.289062 21.007812 9.636719 21.007812 L 14.371094 21.007812 C 14.71875 21.007812 15 21.289062 15 21.636719 Z M 15 26.371094 "/>
<path style=" stroke:none;fill-rule:nonzero;fill:rgb(0%,0%,0%);fill-opacity:1;" d="M 27 26.371094 C 27 26.71875 26.71875 27 26.371094 27 L 21.636719 27 C 21.289062 27 21.007812 26.71875 21.007812 26.371094 L 21.007812 21.636719 C 21.007812 21.289062 21.289062 21.007812 21.636719 21.007812 L 26.371094 21.007812 C 26.71875 21.007812 27 21.289062 27 21.636719 Z M 27 26.371094 "/>
<path style=" stroke:none;fill-rule:nonzero;fill:rgb(0%,0%,0%);fill-opacity:1;" d="M 39 26.371094 C 39 26.71875 38.71875 27 38.371094 27 L 33.636719 27 C 33.289062 27 33.007812 26.71875 33.007812 26.371094 L 33.007812 21.636719 C 33.007812 21.289062 33.289062 21.007812 33.636719 21.007812 L 38.371094 21.007812 C 38.71875 21.007812 39 21.289062 39 21.636719 Z M 39 26.371094 "/>
<path style=" stroke:none;fill-rule:nonzero;fill:rgb(0%,0%,0%);fill-opacity:1;" d="M 15 38.371094 C 15 38.71875 14.71875 39 14.371094 39 L 9.636719 39 C 9.289062 39 9.007812 38.71875 9.007812 38.371094 L 9.007812 33.636719 C 9.007812 33.289062 9.289062 33.007812 9.636719 33.007812 L 14.371094 33.007812 C 14.71875 33.007812 15 33.289062 15 33.636719 Z M 15 38.371094 "/>
<path style=" stroke:none;fill-rule:nonzero;fill:rgb(0%,0%,0%);fill-opacity:1;" d="M 27 38.371094 C 27 38.71875 26.71875 39 26.371094 39 L 21.636719 39 C 21.289062 39 21.007812 38.71875 21.007812 38.371094 L 21.007812 33.636719 C 21.007812 33.289062 21.289062 33.007812 21.636719 33.007812 L 26.371094 33.007812 C 26.71875 33.007812 27 33.289062 27 33.636719 Z M 27 38.371094 "/>
<path style=" stroke:none;fill-rule:nonzero;fill:rgb(0%,0%,0%);fill-opacity:1;" d="M 39 38.371094 C 39 38.71875 38.71875 39 38.371094 39 L 33.636719 39 C 33.289062 39 33.007812 38.71875 33.007812 38.371094 L 33.007812 33.636719 C 33.007812 33.289062 33.289062 33.007812 33.636719 33.007812 L 38.371094 33.007812 C 38.71875 33.007812 39 33.289062 39 33.636719 Z M 39 38.371094 "/>
</g>
</svg>
