<?xml version="1.0" encoding="UTF-8"?>
<svg xmlns="http://www.w3.org/2000/svg" xmlns:xlink="http://www.w3.org/1999/xlink" width="48px" height="48px" viewBox="0 0 48 48" version="1.1">
<g id="surface1">
<path style="fill:none;stroke-width:2;stroke-linecap:round;stroke-linejoin:round;stroke:rgb(0%,0%,0%);stroke-opacity:1;stroke-miterlimit:10;" d="M 6 6 C 6 5.447917 5.552083 5 5 5 C 4.447917 5 4 5.447917 4 6 C 4 6.552083 4.447917 7 5 7 C 5.552083 7 6 6.552083 6 6 Z M 6 6 " transform="matrix(1.5,0,0,1.5,0,0)"/>
<path style="fill:none;stroke-width:2;stroke-linecap:round;stroke-linejoin:round;stroke:rgb(0%,0%,0%);stroke-opacity:1;stroke-miterlimit:10;" d="M 6 16 C 6 15.447917 5.552083 15 5 15 C 4.447917 15 4 15.447917 4 16 C 4 16.552083 4.447917 17 5 17 C 5.552083 17 6 16.552083 6 16 Z M 6 16 " transform="matrix(1.5,0,0,1.5,0,0)"/>
<path style="fill:none;stroke-width:2;stroke-linecap:round;stroke-linejoin:round;stroke:rgb(0%,0%,0%);stroke-opacity:1;stroke-miterlimit:10;" d="M 6 26 C 6 25.447917 5.552083 25 5 25 C 4.447917 25 4 25.447917 4 26 C 4 26.552083 4.447917 27 5 27 C 5.552083 27 6 26.552083 6 26 Z M 6 26 " transform="matrix(1.5,0,0,1.5,0,0)"/>
<path style="fill:none;stroke-width:2;stroke-linecap:round;stroke-linejoin:round;stroke:rgb(0%,0%,0%);stroke-opacity:1;stroke-miterlimit:10;" d="M 10 6 L 28 6 " transform="matrix(1.5,0,0,1.5,0,0)"/>
<path style="fill:none;stroke-width:2;stroke-linecap:round;stroke-linejoin:round;stroke:rgb(0%,0%,0%);stroke-opacity:1;stroke-miterlimit:10;" d="M 10 16 L 28 16 " transform="matrix(1.5,0,0,1.5,0,0)"/>
<path style="fill:none;stroke-width:2;stroke-linecap:round;stroke-linejoin:round;stroke:rgb(0%,0%,0%);stroke-opacity:1;stroke-miterlimit:10;" d="M 10 26 L 28 26 " transform="matrix(1.5,0,0,1.5,0,0)"/>
</g>
</svg>
