<?xml version="1.0" encoding="UTF-8"?>
<svg xmlns="http://www.w3.org/2000/svg" xmlns:xlink="http://www.w3.org/1999/xlink" width="150px" height="150px" viewBox="0 0 150 150" version="1.1">
<g id="surface1">
<path style=" stroke:none;fill-rule:nonzero;fill:rgb(16.862746%,71.372551%,45.09804%);fill-opacity:1;" d="M 143.261719 74.96875 C 143.261719 74.914062 143.261719 74.824219 143.261719 74.765625 C 143.261719 74.296875 143.261719 73.828125 143.234375 73.390625 C 143.234375 73.125 143.203125 72.859375 143.203125 72.570312 C 143.203125 72.304688 143.171875 72.039062 143.171875 71.777344 C 143.144531 71.457031 143.144531 71.132812 143.113281 70.8125 C 143.113281 70.605469 143.085938 70.398438 143.085938 70.195312 C 143.054688 69.84375 143.027344 69.492188 142.996094 69.140625 C 142.996094 68.996094 142.96875 68.820312 142.96875 68.671875 C 142.9375 68.289062 142.878906 67.910156 142.851562 67.5 C 142.851562 67.414062 142.820312 67.296875 142.820312 67.207031 C 138.953125 33.164062 110.070312 6.710938 75 6.710938 C 39.929688 6.710938 11.046875 33.164062 7.179688 67.234375 C 7.179688 67.324219 7.148438 67.441406 7.148438 67.53125 C 7.117188 67.910156 7.058594 68.289062 7.03125 68.703125 C 7 68.847656 7 69.023438 7 69.171875 C 6.972656 69.523438 6.945312 69.875 6.914062 70.226562 C 6.914062 70.429688 6.882812 70.632812 6.882812 70.839844 C 6.855469 71.164062 6.855469 71.484375 6.824219 71.804688 C 6.824219 72.070312 6.796875 72.335938 6.796875 72.597656 C 6.796875 72.859375 6.765625 73.125 6.765625 73.417969 C 6.765625 73.886719 6.738281 74.355469 6.738281 74.796875 C 6.738281 74.851562 6.738281 74.941406 6.738281 75 C 6.738281 75 6.738281 75 6.738281 75.027344 C 6.738281 75.058594 6.738281 75.027344 6.738281 75.058594 C 6.738281 75.117188 6.738281 75.203125 6.738281 75.265625 C 6.738281 75.734375 6.738281 76.199219 6.765625 76.640625 C 6.765625 76.902344 6.796875 77.167969 6.796875 77.460938 C 6.796875 77.722656 6.824219 77.988281 6.824219 78.25 C 6.855469 78.574219 6.855469 78.894531 6.882812 79.21875 C 6.882812 79.421875 6.914062 79.628906 6.914062 79.835938 C 6.945312 80.1875 6.972656 80.539062 7 80.890625 C 7 81.035156 7.03125 81.210938 7.03125 81.359375 C 7.0625 81.738281 7.117188 82.121094 7.148438 82.53125 C 7.148438 82.617188 7.179688 82.734375 7.179688 82.824219 C 11.046875 116.835938 39.929688 143.289062 75 143.289062 C 110.070312 143.289062 138.953125 116.835938 142.820312 82.792969 C 142.820312 82.703125 142.851562 82.589844 142.851562 82.5 C 142.882812 82.117188 142.9375 81.738281 142.96875 81.328125 C 143 81.179688 143 81.007812 143 80.859375 C 143.027344 80.507812 143.054688 80.15625 143.085938 79.804688 C 143.085938 79.601562 143.117188 79.394531 143.117188 79.1875 C 143.144531 78.867188 143.144531 78.542969 143.171875 78.222656 C 143.171875 77.957031 143.203125 77.695312 143.203125 77.429688 C 143.203125 77.167969 143.234375 76.902344 143.234375 76.609375 C 143.234375 76.140625 143.261719 75.671875 143.261719 75.234375 C 143.261719 75.175781 143.261719 75.085938 143.261719 75.027344 C 143.261719 75 143.261719 75 143.261719 74.96875 C 143.261719 75 143.261719 75 143.261719 74.96875 Z M 143.261719 74.96875 "/>
<path style="fill:none;stroke-width:30;stroke-linecap:butt;stroke-linejoin:miter;stroke:rgb(100%,100%,100%);stroke-opacity:1;stroke-miterlimit:10;" d="M 213.6 344.2 L 369.706667 188.2 " transform="matrix(0.292969,0,0,0.292969,0,0)"/>
<path style="fill:none;stroke-width:30;stroke-linecap:butt;stroke-linejoin:miter;stroke:rgb(100%,100%,100%);stroke-opacity:1;stroke-miterlimit:10;" d="M 233.8 345.2 L 154.693333 266.106667 " transform="matrix(0.292969,0,0,0.292969,0,0)"/>
</g>
</svg>
